# AST/ASF file generated using VICON BodyLanguage
# -----------------------------------------------
:version 1.10
:name VICON
:units
  mass 1.0
  length 0.45
  angle deg
:documentation
   .ast/.asf automatically generated from VICON data using
   VICON BodyBuilder and BodyLanguage model FoxedUp or BRILLIANT.MOD
:root
   order TX TY TZ RX RY RZ
   axis XYZ
   position 0 0 0  
   orientation 0 0 0 
:bonedata
  begin
     id 1 
     name lhipjoint
     direction 0.677091 -0.635792 0.370561 
     length 2.74323 
     axis 0 0 0  XYZ
  end
  begin
     id 2 
     name lfemur
     direction 0.34202 -0.939693 0  
     length 7.44995  
     axis 0 0 20  XYZ
    dof rx ry rz
    limits (-160.0 20.0)
           (-70.0 70.0)
           (-60.0 70.0)
  end
  begin
     id 3 
     name ltibia
     direction 0.34202 -0.939693 0   
     length 7.34467   
     axis 0 0 20   XYZ
    dof rx
    limits (-10.0 170.0)
  end
  begin
     id 4 
     name lfoot
     direction 0.101953 -0.280114 0.954537   
     length 1.72105   
     axis -90 7.62852e-016 20   XYZ
    dof rx rz
    limits (-45.0 90.0)
           (-70.0 20.0)
  end
  begin
     id 5 
     name ltoes
     direction 1.53537e-011 -4.21915e-011 1   
     length 0.865872   
     axis -90 7.62852e-016 20   XYZ
    dof rx
    limits (-90.0 20.0)
  end
  begin
     id 6 
     name rhipjoint
     direction -0.695735 -0.620586 0.361699   
     length 2.81045  
     axis 0 0 0  XYZ 
  end
  begin
     id 7 
     name rfemur
     direction -0.34202 -0.939693 0   
     length 7.29387   
     axis 0 0 -20   XYZ
    dof rx ry rz
    limits (-160.0 20.0)
           (-70.0 70.0)
           (-70.0 60.0)
  end
  begin
     id 8 
     name rtibia
     direction -0.34202 -0.939693 0   
     length 7.44935   
     axis 0 0 -20   XYZ
    dof rx
    limits (-10.0 170.0)
 end
 begin
     id 9 
     name rfoot
     direction -0.104163 -0.286184 0.952496   
     length 1.77731  
     axis -90 -7.62852e-016 -20   XYZ
    dof rx rz
    limits (-45.0 90.0)
           (-20.0 70.0)
  end
  begin
     id 10 
     name rtoes
     direction -1.5355e-011 -4.21888e-011 1   
     length 0.892424   
     axis -90 -7.62852e-016 -20   XYZ
    dof rx
    limits (-90.0 20.0)
  end
  begin
     id 11 
     name lowerback
     direction 0.0100202 0.997226 -0.0737589   
     length 2.16892   
     axis 0 0 0   XYZ
    dof rx ry rz
    limits (-20.0 45.0)
           (-30.0 30.0)
           (-30.0 30.0)
  end
  begin
     id 12 
     name upperback
     direction 0.00432398 0.999988 -0.00215019   
     length 2.17326   
     axis 0 0 0   XYZ
    dof rx ry rz
    limits (-20.0 45.0)
           (-30.0 30.0)
           (-30.0 30.0)
  end
  begin
     id 13 
     name thorax
     direction -0.00195047 0.999485 0.0320434   
     length 2.18139   
     axis 0 0 0   XYZ
    dof rx ry rz
    limits (-20.0 45.0)
           (-30.0 30.0)
           (-30.0 30.0)
  end
  begin
     id 14 
     name lowerneck
     direction 0.00782762 0.986241 0.165128   
     length 1.88415   
     axis 0 0 0   XYZ
    dof rx ry rz
    limits (-20.0 45.0)
           (-30.0 30.0)
           (-30.0 30.0)
  end
  begin
     id 15 
     name upperneck
     direction 0.00988667 0.981098 -0.193258   
     length 1.9242   
     axis 0 0 0   XYZ
    dof rx ry rz
    limits (-20.0 45.0)
           (-30.0 30.0)
           (-30.0 30.0)
  end
  begin
     id 16
     name head
     direction 0.00252199 0.996513 -0.0833958  
     length 1.93887  
     axis 0 0 0   XYZ
    dof rx ry rz
    limits (-20.0 45.0)
           (-30.0 30.0)
           (-30.0 30.0)
  end
  begin
     id 17 
     name lclavicle
     direction 0.929492 0.368193 -0.0218667  
     length 3.5955  
     axis 0 0 0   XYZ
    dof ry rz
    limits (-20.0 10.0)
           (0.0 20.0)
  end
  begin
     id 18 
     name lhumerus
     direction 1 -4.48972e-011 1.41911e-027   
     length 5.2795   
     axis 180 -30 -90   XYZ
    dof rx ry rz
    limits (-60.0 90.0)
           (-90.0 90.0)
           (-90.0 90.0)
  end
  begin
     id 19
     name lradius
     direction 1 -4.48963e-011 7.05772e-027   
     length 3.53504   
     axis 180 -30 -90   XYZ
    dof rx
    limits (-10.0 170.0)
  end
  begin
     id 20
     name lwrist
     direction 1 -4.48957e-011 9.54866e-027   
     length 1.76752   
     axis -7.69462e-015 90 90   XYZ
    dof ry
    limits (-180.0 0.0)
 end
  begin
     id 21 
     name lhand
     direction 1 -4.48979e-011 1.90973e-026   
     length 0.667948   
     axis -1.21857e-014 90 90   XYZ
    dof rx rz
    limits (-90.0 90.0)
           (-45.0 45.0)
  end
  begin
     id 22 
     name lfingers
     direction 1 -4.48987e-011 3.81946e-026   
     length 0.538517   
     axis -2.43714e-014 90 90   XYZ
    dof rx
    limits (0.0 90.0)
  end
  begin
     id 23
     name lthumb
     direction 0.707107 -6.34962e-011 0.707107   
     length 0.773206   
     axis -90 45 2.85299e-015   XYZ
    dof rx rz
    limits (-45.0 45.0)
           (-45.0 45.0)
  end
  begin
     id 24 
     name rclavicle
     direction -0.898763 0.414256 -0.143584   
     length 3.5176  
     axis 0 0 0   XYZ 
    dof ry rz
    limits (-10.0 20.0)
           (-20.0 0.0)
  end
  begin
     id 25 
     name rhumerus
     direction -1 -4.48971e-011 1.129e-027  
     length 5.25035   
     axis 180 30 90   XYZ
    dof rx ry rz
    limits (-90.0 60.0)
           (-90.0 90.0)
           (-90.0 90.0)
  end
  begin
     id 26 
     name rradius
     direction -1 -4.48955e-011 6.34664e-027   
     length 3.58884   
     axis 180 30 90   XYZ
    dof rx
    limits (-10.0 170.0)
  end
  begin
     id 27 
     name rwrist
     direction -1 -4.48966e-011 9.54866e-027   
     length 1.79442   
     axis -7.69462e-015 -90 -90   XYZ
    dof ry
    limits (-180.0 0.0)
  end
  begin
     id 28
     name rhand
     direction -1 -4.48973e-011 1.90973e-026   
     length 0.779235   
     axis -1.21857e-014 -90 -90   XYZ
    dof rx rz
    limits (-90.0 90.0)
           (-45.0 45.0)
  end
  begin
     id 29
     name rfingers
     direction -1 -4.48984e-011 3.81946e-026   
     length 0.62824   
     axis -2.43714e-014 -90 -90   XYZ
    dof rx
    limits (0.0 90.0)
  end
  begin
     id 30
     name rthumb
     direction -0.707107 -6.34968e-011 0.707107   
     length 0.90203   
     axis -90 -45 -2.85299e-015   XYZ
    dof rx rz
    limits (-45.0 45.0)
           (-45.0 45.0)
  end
:hierarchy
  begin
    root lhipjoint rhipjoint lowerback
    lhipjoint lfemur
    lfemur ltibia
    ltibia lfoot
    lfoot ltoes
    rhipjoint rfemur
    rfemur rtibia
    rtibia rfoot
    rfoot rtoes
    lowerback upperback
    upperback thorax
    thorax lowerneck lclavicle rclavicle
    lowerneck upperneck
    upperneck head
    lclavicle lhumerus
    lhumerus lradius
    lradius lwrist
    lwrist lhand lthumb
    lhand lfingers
    rclavicle rhumerus
    rhumerus rradius
    rradius rwrist
    rwrist rhand rthumb
    rhand rfingers
  end

#!OML:ASF I:\Random Stuff\random\construction\7_22_03\Session 2\subj1.ASF
:FULLY-SPECIFIED
:DEGREES
248
root -3.90151 17.8142 0.983528 -144.67 84.0347 -149.431
lowerback 0.284315 1.95042 1.54579
upperback -2.86913 2.73704 1.8477
thorax -3.12595 1.37471 0.950163
lowerneck -17.9113 -2.53388 1.18609
upperneck 5.55555 -3.61945 0.402464
head 4.51629 -1.69294 -0.380512
rclavicle 2.81715e-015 -1.86858e-014
rhumerus 32.4161 7.24254 -72.7255
rradius 92.4052
rwrist -24.8339
rhand -34.6426 15.5441
rfingers 7.12502
rthumb -7.79978 -14.292
lclavicle 2.81715e-015 -1.86858e-014
lhumerus -38.0065 -11.3297 94.4932
lradius 31.5369
lwrist 29.0292
lhand -20.1979 57.0659
lfingers 7.12502
lthumb 6.1488 446.957
rfemur 2.88999 1.29356 21.1955
rtibia -9.54166e-015
rfoot -3.00762 -21.1411
rtoes -5.64384
lfemur -8.99962 -19.5116 -11.304
ltibia 15.9002
lfoot -10.2682 16.1142
ltoes -34.1986
249
root -3.90842 17.8147 0.983752 -144.796 84.0586 -149.552
lowerback 0.273737 1.96939 1.52237
upperback -2.86019 2.76045 1.83219
thorax -3.11119 1.38666 0.947193
lowerneck -17.9558 -2.53596 1.18722
upperneck 5.46878 -3.60892 0.295887
head 4.49385 -1.69488 -0.41268
rclavicle -3.15602e-014 4.96962e-015
rhumerus 32.3467 7.00529 -72.7113
rradius 92.515
rwrist -24.3335
rhand -34.1773 15.2728
rfingers 7.12502
rthumb -7.35068 -14.5795
lclavicle -3.15602e-014 4.96962e-015
lhumerus -37.9623 -11.3763 94.4738
lradius 31.5731
lwrist 29.0091
lhand -20.2358 57.2661
lfingers 7.12502
lthumb 6.11212 447.158
rfemur 2.87474 1.30534 21.1656
rtibia 1.27222e-014
rfoot -3.02204 -21.126
rtoes -5.32011
lfemur -8.97372 -19.5865 -11.3246
ltibia 15.8235
lfoot -10.186 16.1443
ltoes -34.0095
250
root -3.91765 17.8158 0.983047 -145.104 84.0343 -149.89
lowerback 0.252429 1.95721 1.51237
upperback -2.86112 2.74354 1.833
thorax -3.1005 1.37861 0.954883
lowerneck -17.8979 -2.5478 1.14342
upperneck 5.26029 -3.59945 0.207416
head 4.41864 -1.69805 -0.429575
rclavicle -3.31722e-015 3.57812e-015
rhumerus 32.2731 6.83334 -72.6814
rradius 92.6666
rwrist -24.1542
rhand -33.7556 14.7107
rfingers 7.12502
rthumb -6.94366 -15.1555
lclavicle -3.31722e-015 3.57812e-015
lhumerus -37.9123 -11.2754 94.3988
lradius 31.5593
lwrist 28.7026
lhand -20.0105 57.2363
lfingers 7.12502
lthumb 6.32964 447.122
rfemur 2.81719 1.26531 21.1384
rtibia -3.18055e-015
rfoot -3.03179 -21.1104
rtoes -4.65989
lfemur -9.02052 -19.6767 -11.3191
ltibia 15.7496
lfoot -10.1234 16.2258
ltoes -34.017
251
root -3.92613 17.8172 0.982991 -145.471 84.0149 -150.302
lowerback 0.193594 1.92323 1.45774
upperback -2.85226 2.69659 1.8666
thorax -3.06194 1.35752 1.02356
lowerneck -17.8272 -2.54053 1.08185
upperneck 5.02847 -3.56104 0.125736
head 4.3349 -1.68678 -0.438619
rclavicle -1.84932e-014 3.18055e-015
rhumerus 32.1851 6.77797 -72.6139
rradius 92.8106
rwrist -24.3601
rhand -33.4082 14.5948
rfingers 7.12502
rthumb -6.60832 -15.2821
lclavicle -1.84932e-014 3.18055e-015
lhumerus -37.9296 -11.2214 94.3822
lradius 31.6523
lwrist 28.5575
lhand -19.9855 57.1185
lfingers 7.12502
lthumb 6.35382 447.003
rfemur 2.74476 1.22515 21.1015
rtibia -6.36111e-015
rfoot -3.03769 -21.0906
rtoes -4.26097
lfemur -9.08545 -19.7985 -11.317
ltibia 15.6872
lfoot -10.0878 16.3324
ltoes -34.0232
252
root -3.9333 17.8186 0.982618 -145.493 84.0433 -150.355
lowerback 0.152816 1.90138 1.42247
upperback -2.84788 2.66656 1.89202
thorax -3.03699 1.34412 1.07175
lowerneck -17.8856 -2.50664 1.08393
upperneck 4.9624 -3.50298 0.00805367
head 4.3213 -1.66562 -0.470662
rclavicle 1.13463e-014 1.43125e-014
rhumerus 31.9997 6.81432 -72.5873
rradius 92.9556
rwrist -24.4857
rhand -33.0173 14.8494
rfingers 7.12502
rthumb -6.23089 -15.0389
lclavicle 1.13463e-014 1.43125e-014
lhumerus -38.0279 -11.2806 94.3987
lradius 31.8741
lwrist 28.6585
lhand -20.1325 57.1596
lfingers 7.12502
lthumb 6.21192 447.048
rfemur 2.68032 1.24535 21.0716
rtibia -3.18055e-015
rfoot -2.97498 -21.078
rtoes -4.65778
lfemur -9.10563 -19.8641 -11.3225
ltibia 15.6236
lfoot -10.0158 16.3578
ltoes -33.8425
253
root -3.94231 17.8198 0.98269 -145.561 84.076 -150.44
lowerback 0.152467 1.87133 1.40255
upperback -2.84759 2.62641 1.90307
thorax -3.0375 1.32477 1.09534
lowerneck -18.0956 -2.4706 1.07158
upperneck 5.1209 -3.44698 -0.0885798
head 4.402 -1.64351 -0.498321
rclavicle 2.20123e-014 3.02153e-014
rhumerus 31.8262 6.89501 -72.6185
rradius 93.093
rwrist -24.2492
rhand -32.6882 15.1617
rfingers 7.12502
rthumb -5.9132 -14.7357
lclavicle 2.20123e-014 3.02153e-014
lhumerus -38.0844 -11.299 94.3771
lradius 32.0321
lwrist 28.7143
lhand -20.0612 57.146
lfingers 7.12502
lthumb 6.28069 447.033
rfemur 2.62229 1.26683 21.0404
rtibia -7.95139e-015
rfoot -2.8852 -21.05
rtoes -5.22137
lfemur -9.12033 -19.8538 -11.3357
ltibia 15.5573
lfoot -9.93113 16.3218
ltoes -33.7956
254
root -3.95214 17.82 0.982835 -145.66 84.0928 -150.543
lowerback 0.135933 1.84277 1.38991
upperback -2.81235 2.58677 1.92434
thorax -2.9929 1.30562 1.12659
lowerneck -18.3194 -2.44519 0.997366
upperneck 5.30274 -3.39848 -0.111341
head 4.49461 -1.62158 -0.494158
rclavicle 1.02995e-014 9.93923e-015
rhumerus 31.8569 6.89321 -72.6691
rradius 93.2347
rwrist -24.0765
rhand -32.5791 15.508
rfingers 7.12502
rthumb -5.80788 -14.3924
lclavicle 1.02995e-014 9.93923e-015
lhumerus -37.9857 -11.2311 94.3327
lradius 32.0015
lwrist 28.6074
lhand -19.9037 57.0366
lfingers 7.12502
lthumb 6.43274 446.919
rfemur 2.58235 1.2741 21.0176
rtibia 1.43125e-014
rfoot -2.84842 -21.0094
rtoes -5.37696
lfemur -9.12341 -19.8768 -11.3419
ltibia 15.4876
lfoot -9.89757 16.386
ltoes -33.9218
255
root -3.96237 17.8206 0.981169 -145.687 84.1366 -150.588
lowerback 0.109808 1.83345 1.3857
upperback -2.78528 2.57258 1.93183
thorax -2.95058 1.29877 1.13845
lowerneck -18.4247 -2.40613 1.03889
upperneck 5.35037 -3.34989 -0.182436
head 4.52413 -1.60101 -0.52045
rclavicle 3.11067e-014 -3.57812e-015
rhumerus 32.0489 6.78895 -72.7546
rradius 93.5109
rwrist -24.2134
rhand -32.508 15.6413
rfingers 7.12502
rthumb -5.73921 -14.261
lclavicle 3.11067e-014 -3.57812e-015
lhumerus -37.8634 -11.155 94.2723
lradius 31.9068
lwrist 28.4412
lhand -19.7496 56.9808
lfingers 7.12502
lthumb 6.58155 446.859
rfemur 2.51879 1.30703 20.9772
rtibia 3.18055e-015
rfoot -2.77745 -20.9959
rtoes -5.76593
lfemur -9.1406 -19.9119 -11.3614
ltibia 15.4285
lfoot -9.88249 16.5282
ltoes -34.0797
256
root -3.97409 17.8225 0.978794 -145.921 84.2167 -150.853
lowerback 0.124757 1.82477 1.3548
upperback -2.79181 2.56074 1.92641
thorax -2.96667 1.29341 1.1498
lowerneck -18.4023 -2.37429 1.14733
upperneck 5.27712 -3.32165 -0.271626
head 4.49455 -1.59087 -0.561949
rclavicle -8.32411e-016 -1.35174e-014
rhumerus 32.3037 6.72256 -72.8127
rradius 93.9403
rwrist -24.5253
rhand -32.5313 15.6073
rfingers 7.12502
rthumb -5.76172 -14.2943
lclavicle -8.32411e-016 -1.35174e-014
lhumerus -37.8471 -11.2426 94.2904
lradius 31.8833
lwrist 28.5196
lhand -19.8076 57.0622
lfingers 7.12502
lthumb 6.52553 446.942
rfemur 2.43393 1.35743 20.8926
rtibia 3.18055e-015
rfoot -2.66114 -21.0003
rtoes -6.37529
lfemur -9.18605 -19.8436 -11.4262
ltibia 15.3925
lfoot -9.72475 16.5462
ltoes -34.6039
257
root -3.98587 17.8241 0.978371 -145.56 84.2839 -150.514
lowerback 0.148414 1.8271 1.3699
upperback -2.79417 2.56553 1.94256
thorax -2.98264 1.29569 1.15695
lowerneck -18.384 -2.36768 1.23599
upperneck 5.21447 -3.32314 -0.35667
head 4.46908 -1.59547 -0.601806
rclavicle -2.79634e-014 -3.18055e-014
rhumerus 32.5964 6.69227 -72.7858
rradius 94.4092
rwrist -24.8817
rhand -32.814 15.4393
rfingers 7.12502
rthumb -6.0346 -14.4548
lclavicle -2.79634e-014 -3.18055e-014
lhumerus -37.8325 -11.4455 94.3633
lradius 31.8668
lwrist 28.7647
lhand -20.0415 57.1265
lfingers 7.12502
lthumb 6.29971 447.013
rfemur 2.35062 1.4314 20.8815
rtibia 6.36111e-015
rfoot -2.58008 -20.9766
rtoes -6.46051
lfemur -9.25186 -19.6694 -11.4196
ltibia 15.41
lfoot -9.59836 16.4376
ltoes -34.9959
258
root -3.99627 17.8255 0.978768 -144.674 84.3306 -149.669
lowerback 0.14891 1.84783 1.43466
upperback -2.80211 2.59579 1.96042
thorax -2.98956 1.30971 1.13815
lowerneck -18.4531 -2.35089 1.32429
upperneck 5.26675 -3.31295 -0.451721
head 4.49305 -1.59463 -0.646006
rclavicle -1.87883e-014 -9.54166e-015
rhumerus 32.884 6.62505 -72.692
rradius 94.8264
rwrist -25.0925
rhand -33.0942 15.1216
rfingers 7.12502
rthumb -6.30518 -14.7646
lclavicle -1.87883e-014 -9.54166e-015
lhumerus -37.7527 -11.4784 94.3068
lradius 31.8032
lwrist 28.7149
lhand -19.9858 56.9659
lfingers 7.12502
lthumb 6.35348 446.851
rfemur 2.24971 1.51748 20.9307
rtibia -4.77083e-015
rfoot -2.51626 -20.9325
rtoes -6.36242
lfemur -9.37061 -19.6962 -11.3369
ltibia 15.5265
lfoot -9.69963 16.535
ltoes -34.691
259
root -4.00258 17.825 0.981965 -143.314 84.3281 -148.299
lowerback 0.178412 1.85988 1.52828
upperback -2.80987 2.61683 2.00097
thorax -3.01239 1.31879 1.12579
lowerneck -18.5038 -2.30864 1.40686
upperneck 5.35335 -3.27348 -0.49854
head 4.5263 -1.57642 -0.671772
rclavicle 1.5002e-015 1.15295e-014
rhumerus 33.0958 6.59639 -72.5541
rradius 95.2485
rwrist -25.1371
rhand -33.2776 14.702
rfingers 7.12502
rthumb -6.48219 -15.1788
lclavicle 1.5002e-015 1.15295e-014
lhumerus -37.7104 -11.4214 94.1894
lradius 31.7631
lwrist 28.5666
lhand -19.8207 56.7319
lfingers 7.12502
lthumb 6.51288 446.612
rfemur 2.22805 1.5948 21.062
rtibia -1.59028e-015
rfoot -2.55459 -20.9174
rtoes -6.10986
lfemur -9.43713 -19.9278 -11.1851
ltibia 15.6716
lfoot -9.83842 16.8189
ltoes -34.327
260
root -4.00635 17.8216 0.988502 -141.249 84.2589 -146.152
lowerback 0.252686 1.84826 1.66705
upperback -2.79906 2.61041 2.10212
thorax -3.04202 1.31413 1.14999
lowerneck -18.4827 -2.2442 1.43114
upperneck 5.38604 -3.19474 -0.495818
head 4.53388 -1.53728 -0.667855
rclavicle 1.71203e-014 -1.31198e-014
rhumerus 33.2636 6.6753 -72.3842
rradius 95.6966
rwrist -25.1428
rhand -33.564 14.2346
rfingers 7.12502
rthumb -6.75869 -15.6375
lclavicle 1.71203e-014 -1.31198e-014
lhumerus -37.6919 -11.3764 94.141
lradius 31.7421
lwrist 28.5465
lhand -19.8492 56.731
lfingers 7.12502
lthumb 6.48538 446.612
rfemur 2.29827 1.66976 21.3186
rtibia -1.27222e-014
rfoot -2.67882 -20.9413
rtoes -5.53841
lfemur -9.38882 -20.0332 -10.9393
ltibia 15.7301
lfoot -9.89816 16.9594
ltoes -34.2716
261
root -4.01438 17.8212 0.985964 -141.081 84.3039 -146.01
lowerback 0.258647 1.8252 1.68694
upperback -2.80642 2.58182 2.12922
thorax -3.05319 1.29997 1.16721
lowerneck -18.4261 -2.17748 1.44252
upperneck 5.34821 -3.10774 -0.496868
head 4.51409 -1.49478 -0.661203
rclavicle -1.3713e-014 -1.74931e-014
rhumerus 33.5228 6.8179 -72.1715
rradius 96.0668
rwrist -25.231
rhand -33.8049 13.8609
rfingers 7.12502
rthumb -6.9912 -16.0037
lclavicle -1.3713e-014 -1.74931e-014
lhumerus -37.6365 -11.2331 94.0798
lradius 31.7415
lwrist 28.4602
lhand -19.9425 56.9056
lfingers 7.12502
lthumb 6.39533 446.789
rfemur 2.23612 1.71356 21.2949
rtibia 4.77083e-015
rfoot -2.62275 -20.9731
rtoes -5.65394
lfemur -9.42834 -20.0223 -10.9491
ltibia 15.7155
lfoot -9.84703 17.0022
ltoes -34.4495
262
root -4.02616 17.8252 0.973946 -143.146 84.5044 -148.203
lowerback 0.199972 1.80898 1.56409
upperback -2.84078 2.55343 2.04095
thorax -3.05627 1.28714 1.14731
lowerneck -18.4191 -2.13129 1.53761
upperneck 5.38246 -3.06223 -0.566974
head 4.52169 -1.47525 -0.694437
rclavicle 1.91175e-014 5.96354e-015
rhumerus 33.8538 6.97246 -71.9595
rradius 96.3445
rwrist -25.4138
rhand -33.8741 13.4667
rfingers 7.12502
rthumb -7.05805 -16.3956
lclavicle 1.91175e-014 5.96354e-015
lhumerus -37.6271 -11.1132 93.9948
lradius 31.8426
lwrist 28.4439
lhand -20.048 57.058
lfingers 7.12502
lthumb 6.29344 446.944
rfemur 2.06353 1.74053 20.9241
rtibia 4.77083e-015
rfoot -2.57891 -20.9903
rtoes -5.64003
lfemur -9.54082 -20.0362 -11.2714
ltibia 15.6455
lfoot -9.73604 17.0901
ltoes -34.5764
